<svg width="25" height="26" viewBox="0 0 25 26" fill="none" xmlns="http://www.w3.org/2000/svg">
<g id="picture_as_pdf_48dp_FILL0_wght300_GRAD0_opsz48 1">
<path id="Vector" d="M1.8977 22.6133C1.38169 22.6133 0.936404 22.4235 0.561842 22.0439C0.187281 21.6644 0 21.2132 0 20.6903V11.4339H1.49309V20.6903C1.49309 20.8098 1.53103 20.9081 1.60691 20.9849C1.68279 21.0618 1.77972 21.1003 1.8977 21.1003H23.1023C23.2203 21.1003 23.3172 21.0618 23.3931 20.9849C23.469 20.9081 23.5069 20.8098 23.5069 20.6903V4.53628C23.5069 4.41673 23.469 4.3185 23.3931 4.24161C23.3172 4.16472 23.2203 4.12628 23.1023 4.12628H11.3362V2.61328H23.1023C23.6183 2.61328 24.0636 2.80306 24.4382 3.18262C24.8127 3.56217 25 4.01339 25 4.53628V20.6903C25 21.2132 24.8127 21.6644 24.4382 22.0439C24.0636 22.4235 23.6183 22.6133 23.1023 22.6133H1.8977ZM19.6382 18.2799L20.7109 17.1926L15.1872 11.6286H19.4105V10.1159H12.6543V16.9619H14.1474V12.7156L19.6382 18.2799ZM0 8.99795V2.61328H8.93224V8.99795H0Z" fill="white"/>
</g>
</svg>
