<svg width="25" height="25" viewBox="0 0 25 25" fill="none" xmlns="http://www.w3.org/2000/svg">
<path id="Vector" d="M11.8048 25V22.985C9.06955 22.7225 6.81965 21.7092 5.05515 19.9449C3.29085 18.1804 2.27747 15.9305 2.01501 13.1952H0V11.8048H2.01501C2.27747 9.06955 3.29085 6.81965 5.05515 5.05515C6.81965 3.29085 9.06955 2.27512 11.8048 2.00797V0H13.1952V2.00337C15.9305 2.27359 18.1804 3.29085 19.9449 5.05515C21.7092 6.81965 22.7249 9.06955 22.992 11.8048H25V13.1952H22.9966C22.7264 15.9305 21.7092 18.1804 19.9449 19.9449C18.1804 21.7092 15.9305 22.7225 13.1952 22.985V25H11.8048ZM12.5 21.6134C15.0059 21.6134 17.1513 20.721 18.9363 18.9363C20.721 17.1513 21.6134 15.0059 21.6134 12.5C21.6134 9.99408 20.721 7.84865 18.9363 6.06372C17.1513 4.279 15.0059 3.38664 12.5 3.38664C9.99408 3.38664 7.84865 4.279 6.06373 6.06372C4.279 7.84865 3.38664 9.99408 3.38664 12.5C3.38664 15.0059 4.279 17.1513 6.06373 18.9363C7.84865 20.721 9.99408 21.6134 12.5 21.6134ZM12.5 16.5653C11.366 16.5653 10.405 16.1712 9.61703 15.383C8.82884 14.595 8.43474 13.634 8.43474 12.5C8.43474 11.366 8.82884 10.405 9.61703 9.61703C10.405 8.82884 11.366 8.43474 12.5 8.43474C13.634 8.43474 14.595 8.82884 15.383 9.61703C16.1712 10.405 16.5653 11.366 16.5653 12.5C16.5653 13.634 16.1712 14.595 15.383 15.383C14.595 16.1712 13.634 16.5653 12.5 16.5653ZM12.4991 15.1749C13.2523 15.1749 13.8866 14.9176 14.402 14.4029C14.9173 13.8882 15.1749 13.2542 15.1749 12.5009C15.1749 11.7477 14.9176 11.1134 14.4029 10.598C13.8882 10.0827 13.2542 9.82506 12.5009 9.82506C11.7477 9.82506 11.1134 10.0824 10.598 10.5971C10.0827 11.1118 9.82506 11.7458 9.82506 12.4991C9.82506 13.2523 10.0824 13.8866 10.5971 14.402C11.1118 14.9173 11.7458 15.1749 12.4991 15.1749Z" fill="white"/>
</svg>
