<svg width="25" height="26" viewBox="0 0 25 26" fill="none" xmlns="http://www.w3.org/2000/svg">
<path id="Vector" d="M7.49223 14.757H8.61216V11.9789H10.325C10.643 11.9789 10.9092 11.8718 11.1236 11.6576C11.3378 11.4432 11.4449 11.1769 11.4449 10.8587V9.14616C11.4449 8.82791 11.3378 8.5617 11.1236 8.34751C10.9092 8.13332 10.643 8.02623 10.325 8.02623H7.49223V14.757ZM8.61216 10.8587V9.14616H10.325V10.8587H8.61216ZM12.9182 14.757H15.6652C15.9771 14.757 16.2418 14.648 16.4591 14.4299C16.6767 14.2121 16.7855 13.9478 16.7855 13.637V9.14616C16.7855 8.82791 16.6767 8.5617 16.4591 8.34751C16.2418 8.13332 15.9771 8.02623 15.6652 8.02623H12.9182V14.757ZM14.0385 13.637V9.14616H15.6652V13.637H14.0385ZM18.5186 14.757H19.6389V11.9789H21.497V10.8587H19.6389V9.14616H21.497V8.02623H18.5186V14.757ZM5.69122 21.8593C5.16126 21.8593 4.70394 21.667 4.31926 21.2823C3.93457 20.8976 3.74223 20.4403 3.74223 19.9103V2.55055C3.74223 2.02059 3.93457 1.56327 4.31926 1.17859C4.70394 0.793905 5.16126 0.601562 5.69122 0.601562H23.051C23.5807 0.601562 24.0381 0.793905 24.423 1.17859C24.8077 1.56327 25 2.02059 25 2.55055V19.9103C25 20.4403 24.8077 20.8976 24.423 21.2823C24.0381 21.667 23.5807 21.8593 23.051 21.8593H5.69122ZM5.69122 20.3259H23.051C23.1548 20.3259 23.2501 20.2826 23.3368 20.1962C23.4233 20.1094 23.4666 20.0142 23.4666 19.9103V2.55055C23.4666 2.44672 23.4233 2.35145 23.3368 2.26474C23.2501 2.17825 23.1548 2.13501 23.051 2.13501H5.69122C5.58739 2.13501 5.49212 2.17825 5.40541 2.26474C5.31869 2.35145 5.27534 2.44672 5.27534 2.55055V19.9103C5.27534 20.0142 5.31869 20.1094 5.40541 20.1962C5.49212 20.2826 5.58739 20.3259 5.69122 20.3259ZM1.94899 25.6016C1.41926 25.6016 0.961937 25.4092 0.577027 25.0245C0.192342 24.6396 0 24.1822 0 23.6522V4.75967H1.53345V23.6522C1.53345 23.7563 1.57669 23.8517 1.66318 23.9384C1.74989 24.0249 1.84516 24.0681 1.94899 24.0681H20.8419V25.6016H1.94899Z" fill="white"/>
</svg>
