<svg width="26" height="25" viewBox="0 0 26 25" fill="none" xmlns="http://www.w3.org/2000/svg">
<path id="Vector" d="M2.2256 25C1.71178 25 1.26838 24.8135 0.895402 24.4405C0.522426 24.0676 0.335937 23.6242 0.335938 23.1103V4.61591C0.335938 4.10208 0.522426 3.65868 0.895402 3.28571C1.26838 2.91273 1.71178 2.72624 2.2256 2.72624H14.7107L13.2239 4.21302H2.2256C2.12494 4.21302 2.03256 4.25494 1.94849 4.3388C1.86464 4.42287 1.82271 4.51524 1.82271 4.61591V23.1103C1.82271 23.211 1.86464 23.3034 1.94849 23.3874C2.03256 23.4713 2.12494 23.5132 2.2256 23.5132H20.72C20.8207 23.5132 20.9131 23.4713 20.9971 23.3874C21.081 23.3034 21.1229 23.211 21.1229 23.1103V11.9757L22.6097 10.4893V23.1103C22.6097 23.6242 22.4232 24.0676 22.0502 24.4405C21.6773 24.8135 21.2339 25 20.72 25H2.2256ZM8.19727 17.1387V12.641L20.4328 0.405839C20.5789 0.259531 20.7426 0.15537 20.9241 0.0933525C21.1056 0.0311169 21.2912 0 21.4809 0C21.6624 0 21.8457 0.0343921 22.0309 0.103179C22.2159 0.172184 22.3845 0.279732 22.5367 0.425822L24.8269 2.71117C24.9813 2.86469 25.0972 3.03534 25.1745 3.22314C25.2518 3.41072 25.2904 3.60071 25.2904 3.79309C25.2904 3.98547 25.2551 4.17633 25.1846 4.36566C25.1139 4.55476 25.003 4.72553 24.8521 4.87795L12.6317 17.1387H8.19727ZM9.68404 15.6519H12.0146L20.6797 6.98708L19.5107 5.82524L18.2912 4.65128L9.68404 13.2381V15.6519Z" fill="white"/>
</svg>
